<svg width="153" height="27" viewBox="0 0 153 27" fill="none" xmlns="http://www.w3.org/2000/svg">
<path d="M150.196 0.00349122C149.224 0.0864632 148.482 0.90712 148.496 1.88268V25.1159C148.481 26.0917 149.224 26.9127 150.196 26.9957C150.695 27.0265 151.185 26.8498 151.55 26.5073C151.914 26.1649 152.121 25.6871 152.121 25.187V1.81212C152.121 1.312 151.914 0.834123 151.55 0.491627C151.185 0.149134 150.695 -0.027522 150.196 0.00349122Z" fill="black"/>
<path d="M51.5478 0.194273C50.6428 -0.258833 49.5418 0.107651 49.0888 1.01279L38.9632 21.2463C38.9616 21.2497 38.9581 21.2518 38.9544 21.2518C38.9506 21.2518 38.9472 21.2497 38.9455 21.2463L28.8199 1.01279C28.3536 0.133336 27.2705 -0.213029 26.3804 0.232673C25.4904 0.678375 25.1189 1.75312 25.5438 2.65331L37.2199 25.987C37.5305 26.6082 38.1656 27.0003 38.8601 26.9997C38.8912 26.9997 38.9229 26.996 38.9542 26.9945C38.9856 26.9931 39.0172 26.9997 39.0486 26.9997C39.7431 27.0002 40.3782 26.6081 40.6888 25.987L52.3664 2.65331C52.8193 1.74823 52.4529 0.647344 51.5478 0.194273Z" fill="black"/>
<path d="M109.868 0.185132C108.894 0.268952 108.15 1.09132 108.165 2.06897V19.8025L108.158 19.8122L108.147 19.8086L93.5033 0.710969C92.929 -0.0364994 91.879 -0.221505 91.084 0.284726C90.5519 0.634627 90.2358 1.23246 90.2463 1.8692V25.1123C90.2319 26.0898 90.9756 26.9121 91.9496 26.9958C92.4498 27.0268 92.9406 26.8497 93.3058 26.5065C93.671 26.1632 93.8781 25.6843 93.8781 25.1831V7.19725L93.8847 7.1882L93.8955 7.19116L108.54 26.2882C109.123 27.0489 110.197 27.2256 110.994 26.6921C111.506 26.3386 111.807 25.7528 111.797 25.1309V1.99783C111.797 1.49691 111.59 1.01796 111.225 0.674653C110.859 0.331202 110.369 0.154125 109.868 0.185132Z" fill="black"/>
<path d="M141.248 0.000217901H119.302C118.326 -0.0145985 117.505 0.727902 117.422 1.70026C117.391 2.19929 117.568 2.68886 117.911 3.05315C118.253 3.41743 118.731 3.62407 119.231 3.62416L128.418 3.62416C128.423 3.62431 128.427 3.62864 128.428 3.63404L128.428 25.1161C128.413 26.0917 129.155 26.9126 130.127 26.9959C130.626 27.0266 131.116 26.8499 131.48 26.5074C131.844 26.1649 132.051 25.6872 132.051 25.1872V3.63404L132.06 3.62416L141.177 3.62416C142.153 3.63867 142.974 2.89625 143.057 1.92412C143.087 1.42504 142.911 0.935418 142.568 0.571123C142.226 0.206829 141.748 0.000231331 141.248 0.000217901Z" fill="black"/>
<path d="M15.341 1.0119C15.0146 0.360068 14.3329 -0.0362751 13.6049 0.00262363C12.8783 -0.0346284 12.1984 0.361432 11.8724 1.0119L0.194222 24.3464C-0.258795 25.2515 0.107667 26.3525 1.01274 26.8055C1.91781 27.2585 3.01875 26.892 3.47177 25.987L6.3405 20.255C6.34208 20.2516 6.34548 20.2495 6.34921 20.2495H20.8642C20.8679 20.2495 20.8713 20.2516 20.8729 20.255L23.7416 25.987C24.1946 26.892 25.2955 27.2583 26.2005 26.8053C27.1055 26.3523 27.4719 25.2514 27.0189 24.3464L15.341 1.0119ZM7.72579 17.4865L13.598 5.75314C13.5995 5.74974 13.6029 5.74755 13.6067 5.74755C13.6104 5.74755 13.6138 5.74974 13.6154 5.75314L19.4879 17.4865C19.4894 17.4895 19.4892 17.493 19.4875 17.4959C19.4857 17.4988 19.4825 17.5005 19.4792 17.5004H7.7345C7.73114 17.5005 7.72798 17.4988 7.7262 17.4959C7.72442 17.493 7.72426 17.4895 7.72579 17.4865Z" fill="black"/>
<path d="M84.736 24.5174C84.7144 24.4559 84.689 24.3957 84.6602 24.3371L73.9065 2.60853C73.3541 1.3316 72.2037 0.412316 70.8363 0.155199C69.469 -0.101918 68.0632 0.336691 67.0847 1.32574L64.4424 6.35646L58.1013 19.7129C57.0543 21.7309 55.4033 23.0671 53.4364 23.5349L63.146 3.98454C63.1654 3.94476 63.1834 3.9044 63.2 3.86346C63.3587 3.50669 63.7128 3.277 64.1033 3.27752C64.14 3.27814 64.1766 3.28086 64.213 3.28565L65.8099 0.445086C64.7868 -0.011118 63.6236 -0.0384624 62.5802 0.369163C61.5367 0.776789 60.7001 1.58541 60.2572 2.61434L49.4922 24.293C49.4757 24.324 49.4603 24.3557 49.4458 24.3885C49.2065 24.9181 49.2427 25.5313 49.5424 26.0291C49.8421 26.5269 50.3672 26.8458 50.9472 26.8821C51.2402 26.9065 51.5366 26.9187 51.8296 26.9187C55.6834 26.9187 59.0946 24.7651 60.9531 21.1568C60.961 21.1414 60.9689 21.126 60.9761 21.1101L67.0266 8.36428L67.0283 8.36021L67.082 8.24756L68.8532 4.52663L68.8506 4.52111L69.1171 3.95956C69.1284 3.93595 69.1389 3.91224 69.1488 3.88843C69.3021 3.5186 69.6631 3.27751 70.0634 3.27751C70.4637 3.27751 70.8247 3.5186 70.9781 3.88843C70.9911 3.92066 71.0071 3.9526 71.0213 3.98395L80.6966 23.534C78.7436 23.0648 77.1008 21.7294 76.0553 19.7135L69.6877 6.28445L67.9296 10.0347L73.1798 21.1078C73.1874 21.1234 73.1952 21.1394 73.203 21.1551C75.0904 24.8171 78.405 26.9169 82.3002 26.9169C82.6077 26.9169 82.919 26.9033 83.2253 26.8766C83.4193 26.8599 83.6085 26.8078 83.7836 26.7227C84.6354 26.3555 85.0534 25.3891 84.736 24.5174Z" fill="black"/>
</svg>
